<svg width="149" height="42" viewBox="0 0 149 42" fill="none" xmlns="http://www.w3.org/2000/svg">
<path d="M148.124 37.1247C148.124 39.3168 146.239 41.0924 143.907 41.0924H5.88779C3.55684 41.0924 1.66479 39.3168 1.66479 37.1247V5.4835C1.66479 3.29245 3.55684 1.5106 5.88779 1.5106H143.906C146.239 1.5106 148.123 3.29245 148.123 5.4835L148.124 37.1247Z" fill="black"/>
<path d="M143.462 1.55845C146.002 1.55845 148.068 3.49561 148.068 5.87625V36.7268C148.068 39.1074 146.002 41.0446 143.462 41.0446H6.32742C3.78769 41.0446 1.72107 39.1074 1.72107 36.7268V5.87625C1.72107 3.49561 3.78769 1.55845 6.32742 1.55845H143.462ZM143.462 0.734489H6.32742C3.31183 0.734489 0.842041 3.04957 0.842041 5.87625V36.7268C0.842041 39.5535 3.31183 41.8686 6.32742 41.8686H143.462C146.477 41.8686 148.947 39.5535 148.947 36.7268V5.87625C148.947 3.04957 146.477 0.734489 143.462 0.734489Z" fill="white"/>
<path d="M33.8945 21.0794C33.8627 17.765 36.7897 16.1526 36.9235 16.0775C35.2658 13.812 32.6965 13.5025 31.7936 13.4778C29.6357 13.2649 27.5424 14.6882 26.4432 14.6882C25.322 14.6882 23.6292 13.4984 21.8047 13.5333C19.457 13.5673 17.2606 14.8414 16.056 16.82C13.5701 20.8542 15.4241 26.7826 17.8059 30.0435C18.9973 31.6406 20.3895 33.4237 22.2117 33.361C23.9945 33.2921 24.6604 32.2956 26.8118 32.2956C28.9434 32.2956 29.5687 33.361 31.4272 33.3209C33.3405 33.2921 34.5451 31.7167 35.6948 30.1052C37.0716 28.2748 37.6246 26.4721 37.6465 26.3795C37.6015 26.3651 33.9307 25.0519 33.8945 21.0794Z" fill="white"/>
<path d="M30.3839 11.3327C31.3427 10.2087 31.9988 8.67953 31.8166 7.12775C30.4288 7.18533 28.6933 8.02755 27.6938 9.12686C26.8096 10.0956 26.0197 11.6833 26.2237 13.1765C27.7827 13.2855 29.3833 12.4392 30.3839 11.3327Z" fill="white"/>
<path d="M54.6537 11.0273C54.6537 12.2376 54.2665 13.1488 53.493 13.7606C52.7766 14.3252 51.7586 14.608 50.4399 14.608C49.786 14.608 49.2265 14.5813 48.7581 14.5278V7.91445C49.3691 7.8219 50.0274 7.7746 50.7383 7.7746C51.9944 7.7746 52.9412 8.03066 53.5797 8.54278C54.295 9.12174 54.6537 9.94956 54.6537 11.0273ZM53.4415 11.0571C53.4415 10.2725 53.2199 9.67088 52.7766 9.25131C52.3334 8.83277 51.6862 8.62299 50.8337 8.62299C50.4717 8.62299 50.1634 8.64561 49.9078 8.69292V13.7205C50.0493 13.7411 50.3082 13.7504 50.6845 13.7504C51.5644 13.7504 52.2435 13.521 52.7218 13.0624C53.2001 12.6037 53.4415 11.9353 53.4415 11.0571Z" fill="white"/>
<path d="M61.0816 12.0844C61.0816 12.83 60.8545 13.4408 60.4003 13.92C59.9241 14.4126 59.2933 14.6584 58.5056 14.6584C57.7464 14.6584 57.142 14.4229 56.6911 13.9498C56.2413 13.4778 56.0164 12.8824 56.0164 12.1646C56.0164 11.4139 56.2478 10.7979 56.713 10.3198C57.1782 9.84158 57.8035 9.60197 58.5912 9.60197C59.3504 9.60197 59.9603 9.83747 60.4222 10.3095C60.861 10.7681 61.0816 11.3605 61.0816 12.0844ZM59.889 12.1194C59.889 11.672 59.7859 11.2885 59.5808 10.9687C59.3394 10.582 58.996 10.3887 58.5495 10.3887C58.0876 10.3887 57.7366 10.582 57.4952 10.9687C57.289 11.2885 57.1869 11.6782 57.1869 12.1389C57.1869 12.5863 57.2901 12.9698 57.4952 13.2896C57.7443 13.6763 58.0909 13.8696 58.5385 13.8696C58.9774 13.8696 59.3218 13.6732 59.5698 13.2794C59.7826 12.9534 59.889 12.5667 59.889 12.1194Z" fill="white"/>
<path d="M69.7001 9.7007L68.0819 14.5483H67.0287L66.3584 12.4433C66.1883 11.9178 66.0501 11.3954 65.9426 10.8771H65.9217C65.8219 11.4098 65.6837 11.9312 65.5059 12.4433L64.7939 14.5483H63.7287L62.207 9.7007H63.3886L63.9733 12.0052C64.1148 12.5503 64.2311 13.0696 64.3244 13.5611H64.3452C64.4308 13.156 64.5723 12.6397 64.772 12.0155L65.5059 9.70173H66.4428L67.1461 11.9662C67.3161 12.5184 67.4543 13.05 67.5608 13.5622H67.5926C67.6705 13.0634 67.7879 12.5318 67.9436 11.9662L68.5712 9.70173H69.7001V9.7007Z" fill="white"/>
<path d="M75.6605 14.5484H74.5108V11.7718C74.5108 10.9162 74.1641 10.4884 73.4686 10.4884C73.1274 10.4884 72.852 10.6056 72.6381 10.8411C72.4264 11.0766 72.3189 11.3543 72.3189 11.6721V14.5473H71.1691V11.0859C71.1691 10.6602 71.1549 10.1984 71.1274 9.69864H72.1378L72.1916 10.4565H72.2234C72.3573 10.221 72.5569 10.0267 72.8191 9.87141C73.1307 9.69042 73.4796 9.59889 73.8613 9.59889C74.3441 9.59889 74.7456 9.74492 75.0648 10.038C75.462 10.3969 75.6605 10.9327 75.6605 11.6443V14.5484V14.5484Z" fill="white"/>
<path d="M78.831 14.5484H77.6824V7.47638H78.831V14.5484Z" fill="white"/>
<path d="M85.6001 12.0844C85.6001 12.83 85.373 13.4408 84.9188 13.92C84.4427 14.4126 83.8108 14.6584 83.0242 14.6584C82.2639 14.6584 81.6594 14.4229 81.2096 13.9498C80.7598 13.4778 80.5349 12.8824 80.5349 12.1646C80.5349 11.4139 80.7664 10.7979 81.2316 10.3198C81.6967 9.84158 82.322 9.60197 83.1087 9.60197C83.8689 9.60197 84.4778 9.83747 84.9408 10.3095C85.3796 10.7681 85.6001 11.3605 85.6001 12.0844ZM84.4065 12.1194C84.4065 11.672 84.3034 11.2885 84.0982 10.9687C83.858 10.582 83.5135 10.3887 83.0681 10.3887C82.6051 10.3887 82.254 10.582 82.0138 10.9687C81.8075 11.2885 81.7055 11.6782 81.7055 12.1389C81.7055 12.5863 81.8086 12.9698 82.0138 13.2896C82.2628 13.6763 82.6095 13.8696 83.0571 13.8696C83.4959 13.8696 83.8393 13.6732 84.0872 13.2794C84.3012 12.9534 84.4065 12.5667 84.4065 12.1194Z" fill="white"/>
<path d="M91.1644 14.5483H90.132L90.0465 13.99H90.0146C89.6614 14.4352 89.1578 14.6584 88.504 14.6584C88.0158 14.6584 87.6208 14.5113 87.3235 14.2193C87.0536 13.954 86.9187 13.6239 86.9187 13.2321C86.9187 12.6397 87.182 12.1883 87.7119 11.8757C88.2407 11.563 88.9845 11.4098 89.9422 11.417V11.3265C89.9422 10.6879 89.5846 10.3691 88.8682 10.3691C88.3581 10.3691 87.9083 10.4894 87.5199 10.728L87.2862 10.0205C87.7667 9.74183 88.3603 9.60197 89.0602 9.60197C90.4118 9.60197 91.0898 10.2704 91.0898 11.6073V13.3925C91.0898 13.8768 91.115 14.2625 91.1644 14.5483ZM89.9708 12.8824V12.1348C88.7025 12.1142 88.0684 12.4402 88.0684 13.1117C88.0684 13.3647 88.1408 13.5539 88.2889 13.6804C88.4371 13.8069 88.6258 13.8696 88.8507 13.8696C89.103 13.8696 89.3389 13.7946 89.5539 13.6455C89.77 13.4953 89.9027 13.3051 89.9521 13.0716C89.9642 13.0192 89.9708 12.9554 89.9708 12.8824Z" fill="white"/>
<path d="M97.6973 14.5484H96.6771L96.6233 13.7699H96.5915C96.2657 14.3622 95.7105 14.6584 94.9305 14.6584C94.3074 14.6584 93.7885 14.4291 93.3771 13.9704C92.9656 13.5118 92.7605 12.9164 92.7605 12.1852C92.7605 11.4006 92.9832 10.765 93.4308 10.2797C93.8642 9.82719 94.3951 9.60095 95.027 9.60095C95.7215 9.60095 96.2075 9.81999 96.484 10.2591H96.5059V7.47638H97.6567V13.2423C97.6567 13.7144 97.6699 14.1494 97.6973 14.5484ZM96.5059 12.504V11.6957C96.5059 11.5559 96.4949 11.4427 96.4741 11.3564C96.4094 11.0972 96.27 10.8792 96.0583 10.7033C95.8444 10.5275 95.5866 10.4391 95.2892 10.4391C94.8603 10.4391 94.5246 10.5985 94.2777 10.9183C94.0331 11.2381 93.9091 11.6463 93.9091 12.1451C93.9091 12.6243 94.0265 13.013 94.2624 13.3123C94.5114 13.6311 94.8471 13.7905 95.2673 13.7905C95.6447 13.7905 95.9464 13.6578 96.1757 13.3915C96.3973 13.1457 96.5059 12.8495 96.5059 12.504Z" fill="white"/>
<path d="M107.531 12.0844C107.531 12.83 107.303 13.4408 106.849 13.92C106.373 14.4126 105.743 14.6584 104.955 14.6584C104.197 14.6584 103.592 14.4229 103.14 13.9498C102.69 13.4778 102.465 12.8824 102.465 12.1646C102.465 11.4139 102.697 10.7979 103.162 10.3198C103.627 9.84158 104.252 9.60197 105.041 9.60197C105.799 9.60197 106.41 9.83747 106.871 10.3095C107.31 10.7681 107.531 11.3605 107.531 12.0844ZM106.339 12.1194C106.339 11.672 106.236 11.2885 106.031 10.9687C105.788 10.582 105.446 10.3887 104.998 10.3887C104.538 10.3887 104.187 10.582 103.944 10.9687C103.738 11.2885 103.636 11.6782 103.636 12.1389C103.636 12.5863 103.739 12.9698 103.944 13.2896C104.193 13.6763 104.54 13.8696 104.988 13.8696C105.426 13.8696 105.772 13.6732 106.02 13.2794C106.232 12.9534 106.339 12.5667 106.339 12.1194Z" fill="white"/>
<path d="M113.712 14.5484H112.564V11.7718C112.564 10.9162 112.217 10.4884 111.52 10.4884C111.179 10.4884 110.904 10.6056 110.691 10.8411C110.478 11.0766 110.372 11.3543 110.372 11.6721V14.5473H109.221V11.0859C109.221 10.6602 109.208 10.1984 109.18 9.69864H110.19L110.243 10.4565H110.275C110.41 10.221 110.61 10.0267 110.871 9.87141C111.184 9.69042 111.531 9.59889 111.914 9.59889C112.396 9.59889 112.797 9.74492 113.117 10.038C113.515 10.3969 113.712 10.9327 113.712 11.6443V14.5484V14.5484Z" fill="white"/>
<path d="M121.45 10.508H120.184V12.8629C120.184 13.4614 120.409 13.7606 120.855 13.7606C121.061 13.7606 121.232 13.7442 121.367 13.7103L121.396 14.5278C121.169 14.608 120.871 14.6481 120.503 14.6481C120.049 14.6481 119.696 14.5185 119.44 14.2594C119.184 14.0002 119.056 13.5642 119.056 12.9524V10.508H118.301V9.70071H119.056V8.81221L120.183 8.49342V9.69968H121.449V10.508H121.45Z" fill="white"/>
<path d="M127.537 14.5484H126.386V11.7924C126.386 10.9234 126.039 10.4884 125.345 10.4884C124.812 10.4884 124.447 10.7404 124.248 11.2443C124.214 11.3502 124.194 11.4798 124.194 11.6319V14.5473H123.045V7.47638H124.194V10.3979H124.216C124.578 9.86627 125.097 9.60095 125.769 9.60095C126.246 9.60095 126.639 9.74698 126.952 10.0401C127.342 10.4051 127.537 10.9481 127.537 11.6659V14.5484V14.5484Z" fill="white"/>
<path d="M133.815 11.8952C133.815 12.0885 133.8 12.251 133.773 12.3837H130.324C130.34 12.8629 130.504 13.2279 130.824 13.4809C131.115 13.7071 131.492 13.8203 131.953 13.8203C132.463 13.8203 132.928 13.7442 133.347 13.5909L133.527 14.3396C133.036 14.5391 132.459 14.6388 131.791 14.6388C130.99 14.6388 130.36 14.4177 129.903 13.9755C129.445 13.5334 129.218 12.94 129.218 12.1955C129.218 11.4643 129.429 10.8555 129.856 10.3701C130.301 9.85186 130.904 9.59271 131.664 9.59271C132.408 9.59271 132.973 9.85186 133.355 10.3701C133.663 10.7815 133.815 11.2905 133.815 11.8952ZM132.718 11.6165C132.727 11.2967 132.651 11.0211 132.496 10.7887C132.296 10.4894 131.992 10.3393 131.581 10.3393C131.205 10.3393 130.899 10.4853 130.666 10.7784C130.475 11.0118 130.362 11.2905 130.324 11.6165H132.718Z" fill="white"/>
<path d="M59.6948 33.1317H57.2033L55.8386 29.1118H51.0948L49.7948 33.1317H47.3691L52.069 19.4464H54.9719L59.6948 33.1317ZM55.4272 27.4253L54.193 23.8518C54.0624 23.4868 53.8178 22.6271 53.4568 21.2737H53.4129C53.2692 21.8558 53.0377 22.7155 52.7196 23.8518L51.5073 27.4253H55.4272V27.4253Z" fill="white"/>
<path d="M71.7811 28.0763C71.7811 29.7546 71.2973 31.0812 70.3297 32.055C69.463 32.9219 68.3868 33.3549 67.1021 33.3549C65.7154 33.3549 64.7193 32.888 64.1126 31.9542H64.0687V37.1526H61.7297V26.5122C61.7297 25.4571 61.7001 24.3743 61.6431 23.2636H63.7001L63.8306 24.8278H63.8745C64.6545 23.6493 65.8383 23.0611 67.4268 23.0611C68.6687 23.0611 69.7055 23.5207 70.5349 24.4411C71.3664 25.3625 71.7811 26.5739 71.7811 28.0763ZM69.3983 28.1565C69.3983 27.1961 69.1679 26.4042 68.7049 25.781C68.1992 25.1311 67.5201 24.8062 66.6688 24.8062C66.0917 24.8062 65.5673 24.9872 65.0989 25.344C64.6293 25.7039 64.3221 26.1739 64.1784 26.7559C64.106 27.0274 64.0698 27.2495 64.0698 27.4243V29.0697C64.0698 29.7875 64.3046 30.3932 64.7741 30.8878C65.2437 31.3825 65.8536 31.6293 66.604 31.6293C67.485 31.6293 68.1707 31.3105 68.6611 30.675C69.1525 30.0384 69.3983 29.1993 69.3983 28.1565Z" fill="white"/>
<path d="M83.8897 28.0763C83.8897 29.7546 83.4059 31.0812 82.4371 32.055C81.5715 32.9219 80.4953 33.3549 79.2106 33.3549C77.8239 33.3549 76.8278 32.888 76.2222 31.9542H76.1783V37.1526H73.8394V26.5122C73.8394 25.4571 73.8097 24.3743 73.7527 23.2636H75.8097L75.9403 24.8278H75.9841C76.7631 23.6493 77.9468 23.0611 79.5365 23.0611C80.7773 23.0611 81.814 23.5207 82.6456 24.4411C83.4739 25.3625 83.8897 26.5739 83.8897 28.0763ZM81.5068 28.1565C81.5068 27.1961 81.2753 26.4042 80.8124 25.781C80.3066 25.1311 79.6297 24.8062 78.7773 24.8062C78.1991 24.8062 77.6758 24.9872 77.2063 25.344C76.7367 25.7039 76.4306 26.1739 76.2869 26.7559C76.2156 27.0274 76.1783 27.2495 76.1783 27.4243V29.0697C76.1783 29.7875 76.4131 30.3932 76.8804 30.8878C77.35 31.3814 77.96 31.6293 78.7126 31.6293C79.5935 31.6293 80.2792 31.3105 80.7696 30.675C81.2611 30.0384 81.5068 29.1993 81.5068 28.1565Z" fill="white"/>
<path d="M97.4276 29.2939C97.4276 30.458 96.9964 31.4051 96.1308 32.1362C95.1797 32.9353 93.8555 33.3343 92.1539 33.3343C90.5829 33.3343 89.3235 33.0504 88.3701 32.4818L88.9121 30.6544C89.9389 31.2364 91.0656 31.5285 92.2933 31.5285C93.1742 31.5285 93.8599 31.3413 94.3525 30.9691C94.8429 30.5968 95.0875 30.097 95.0875 29.4738C95.0875 28.9185 94.8856 28.4506 94.4808 28.0712C94.0782 27.6917 93.4057 27.339 92.4666 27.013C89.9104 26.1194 88.6334 24.8103 88.6334 23.0888C88.6334 21.9638 89.081 21.0414 89.9773 20.3236C90.8704 19.6047 92.0618 19.2458 93.5516 19.2458C94.8802 19.2458 95.9838 19.4628 96.8648 19.8958L96.28 21.683C95.4572 21.2635 94.5269 21.0537 93.4858 21.0537C92.663 21.0537 92.0201 21.2439 91.5593 21.6224C91.1699 21.9607 90.9746 22.3731 90.9746 22.8615C90.9746 23.4024 91.1973 23.8498 91.6449 24.2015C92.0343 24.5264 92.742 24.8781 93.7688 25.2576C95.025 25.7317 95.9476 26.2859 96.5411 26.9215C97.1325 27.5549 97.4276 28.3478 97.4276 29.2939Z" fill="white"/>
<path d="M105.161 24.909H102.583V29.7001C102.583 30.9187 103.037 31.5274 103.947 31.5274C104.365 31.5274 104.712 31.4935 104.986 31.4256L105.051 33.0905C104.59 33.252 103.984 33.3332 103.232 33.3332C102.308 33.3332 101.587 33.0689 101.065 32.5414C100.547 32.0128 100.285 31.1264 100.285 29.8811V24.9069H98.7495V23.2616H100.285V21.4547L102.583 20.8048V23.2616H105.161V24.909Z" fill="white"/>
<path d="M116.793 28.1164C116.793 29.6332 116.33 30.8786 115.406 31.8524C114.438 32.8551 113.152 33.3548 111.549 33.3548C110.004 33.3548 108.775 32.8746 107.857 31.9141C106.94 30.9536 106.482 29.7412 106.482 28.2799C106.482 26.7508 106.953 25.4982 107.9 24.5244C108.845 23.5495 110.12 23.0621 111.722 23.0621C113.267 23.0621 114.51 23.5423 115.448 24.5038C116.345 25.4365 116.793 26.6407 116.793 28.1164ZM114.366 28.1874C114.366 27.2773 114.159 26.4968 113.739 25.8458C113.248 25.0581 112.547 24.6653 111.639 24.6653C110.699 24.6653 109.985 25.0591 109.494 25.8458C109.074 26.4978 108.867 27.2906 108.867 28.2285C108.867 29.1386 109.074 29.9191 109.494 30.569C110 31.3567 110.707 31.7496 111.618 31.7496C112.511 31.7496 113.212 31.3485 113.718 30.5485C114.149 29.8852 114.366 29.0964 114.366 28.1874Z" fill="white"/>
<path d="M124.396 25.1918C124.164 25.1517 123.918 25.1311 123.659 25.1311C122.836 25.1311 122.199 25.4221 121.752 26.0052C121.362 26.5194 121.167 27.1693 121.167 27.9539V33.1317H118.829L118.851 26.3713C118.851 25.234 118.822 24.1984 118.763 23.2647H120.801L120.886 25.1527H120.951C121.198 24.5038 121.587 23.9814 122.12 23.5896C122.642 23.2369 123.204 23.0611 123.811 23.0611C124.027 23.0611 124.223 23.0754 124.396 23.1012V25.1918Z" fill="white"/>
<path d="M134.856 27.7308C134.856 28.1236 134.829 28.4547 134.771 28.7252H127.754C127.781 29.7001 128.12 30.4456 128.772 30.9598C129.363 31.4195 130.128 31.6498 131.067 31.6498C132.106 31.6498 133.054 31.4945 133.906 31.183L134.273 32.7049C133.277 33.1121 132.1 33.3147 130.743 33.3147C129.111 33.3147 127.83 32.8643 126.897 31.9645C125.967 31.0647 125.5 29.8564 125.5 28.3406C125.5 26.8526 125.934 25.6134 126.802 24.6252C127.71 23.5701 128.938 23.0425 130.482 23.0425C132 23.0425 133.148 23.5701 133.928 24.6252C134.546 25.4633 134.856 26.4998 134.856 27.7308ZM132.626 27.1621C132.641 26.5122 132.489 25.9507 132.172 25.4766C131.767 24.8668 131.145 24.5624 130.308 24.5624C129.543 24.5624 128.921 24.8596 128.446 25.4561C128.057 25.9301 127.825 26.4988 127.754 27.1611H132.626V27.1621Z" fill="white"/>
</svg>
