<svg width="124" height="42" viewBox="0 0 124 42" fill="none" xmlns="http://www.w3.org/2000/svg">
<path d="M118.495 41.8687H4.5575C2.05202 41.8687 0 39.5122 0 36.6351V5.23361C0 2.35645 2.05202 2.76566e-05 4.5575 2.76566e-05H118.495C121.001 2.76566e-05 123.053 2.35645 123.053 5.23361V36.6351C123.053 39.5122 121.001 41.8687 118.495 41.8687Z" fill="white"/>
<path d="M118.495 0.838707C120.605 0.838707 122.322 2.81046 122.322 5.23361V36.6351C122.322 39.0582 120.605 41.03 118.495 41.03H4.5575C2.44738 41.03 0.73034 39.0582 0.73034 36.6351V5.23361C0.73034 2.81046 2.44738 0.838707 4.5575 0.838707H118.495ZM118.495 2.76566e-05H4.5575C2.05202 2.76566e-05 0 2.35645 0 5.23361V36.6351C0 39.5122 2.05202 41.8687 4.5575 41.8687H118.495C121.001 41.8687 123.053 39.5122 123.053 36.6351V5.23361C123.053 2.35645 121.001 2.76566e-05 118.495 2.76566e-05Z" fill="white"/>
<path d="M9.51157 7.89093C9.24382 8.21279 9.08887 8.71391 9.08887 9.36287V32.511C9.08887 33.16 9.24382 33.6611 9.51157 33.9829L9.57766 34.0536L20.8734 21.0874V20.7812L9.57766 7.81504L9.51157 7.89093Z" fill="url(#paint0_linear_701_5181)"/>
<path d="M24.6346 25.4116L20.8735 21.0874V20.7812L24.6392 16.457L24.7235 16.5132L29.183 19.427C30.4557 20.2539 30.4557 21.6147 29.183 22.4468L24.7235 25.3554L24.6346 25.4116V25.4116Z" fill="url(#paint1_linear_701_5181)"/>
<path d="M24.7235 25.3554L20.8736 20.9343L9.51172 33.9829C9.93443 34.4932 10.6237 34.5547 11.4076 34.0444L24.7235 25.3554" fill="url(#paint2_linear_701_5181)"/>
<path d="M24.7235 16.5133L11.4076 7.82422C10.6237 7.31918 9.93443 7.38067 9.51172 7.89094L20.8736 20.9343L24.7235 16.5133Z" fill="url(#paint3_linear_701_5181)"/>
<path d="M43.2211 10.7223C43.2211 11.5963 42.9932 12.2963 42.5443 12.8184C42.0282 13.4372 41.356 13.7486 40.5322 13.7486C39.7449 13.7486 39.0727 13.432 38.5212 12.8079C37.9686 12.1746 37.6929 11.3975 37.6929 10.4672C37.6929 9.53692 37.9686 8.75973 38.5212 8.1317C39.0727 7.50236 39.7449 7.18573 40.5322 7.18573C40.9241 7.18573 41.2979 7.27863 41.6545 7.45133C42.01 7.62535 42.2994 7.86086 42.509 8.15132L42.0328 8.70347C41.667 8.20759 41.1691 7.96292 40.5322 7.96292C39.958 7.96292 39.46 8.19319 39.0373 8.65767C38.6192 9.12346 38.4095 9.72663 38.4095 10.4672C38.4095 11.2077 38.6192 11.8161 39.0373 12.2819C39.46 12.7412 39.958 12.9767 40.5322 12.9767C41.1418 12.9767 41.6545 12.7412 42.059 12.2767C42.3256 11.9692 42.4771 11.5453 42.517 11.0036H40.5322V10.2474H43.1801C43.212 10.4109 43.2211 10.5692 43.2211 10.7223V10.7223Z" fill="black" stroke="black" stroke-width="0.117895" stroke-miterlimit="10"/>
<path d="M47.4221 8.10029H44.9348V10.0891H47.1771V10.8453H44.9348V12.8341H47.4221V13.6047H44.2307V7.32965H47.4221V8.10029Z" fill="black" stroke="black" stroke-width="0.117895" stroke-miterlimit="10"/>
<path d="M50.3867 13.6047H49.6826V8.10029H48.157V7.32965H51.9135V8.10029H50.3867V13.6047V13.6047Z" fill="black" stroke="black" stroke-width="0.117895" stroke-miterlimit="10"/>
<path d="M54.6321 13.6047V7.32965H55.3351V13.6047H54.6321Z" fill="black" stroke="black" stroke-width="0.117895" stroke-miterlimit="10"/>
<path d="M58.4512 13.6047H57.7528V8.10029H56.2214V7.32965H59.9825V8.10029H58.4512V13.6047Z" fill="black" stroke="black" stroke-width="0.117895" stroke-miterlimit="10"/>
<path d="M67.0945 12.7974C66.5555 13.432 65.8879 13.7486 65.0914 13.7486C64.2905 13.7486 63.6228 13.432 63.0839 12.7974C62.5461 12.1642 62.2783 11.387 62.2783 10.4672C62.2783 9.54738 62.5461 8.7702 63.0839 8.13693C63.6228 7.50236 64.2905 7.18573 65.0914 7.18573C65.8833 7.18573 66.551 7.50236 67.0899 8.14217C67.6323 8.78066 67.9 9.55262 67.9 10.4672C67.9 11.387 67.6323 12.1642 67.0945 12.7974ZM63.6046 12.2715C64.0102 12.7412 64.5035 12.9767 65.0914 12.9767C65.6748 12.9767 66.1727 12.7412 66.5738 12.2715C66.9782 11.8017 67.1833 11.1986 67.1833 10.4672C67.1833 9.73579 66.9782 9.13262 66.5738 8.66291C66.1727 8.19319 65.6748 7.95768 65.0914 7.95768C64.5035 7.95768 64.0102 8.19319 63.6046 8.66291C63.2001 9.13262 62.995 9.73579 62.995 10.4672C62.995 11.1986 63.2001 11.8017 63.6046 12.2715V12.2715Z" fill="black" stroke="black" stroke-width="0.117895" stroke-miterlimit="10"/>
<path d="M68.8879 13.6047V7.32965H69.7425L72.3995 12.21H72.4303L72.3995 11.0036V7.32965H73.1025V13.6047H72.3687L69.5864 8.48365H69.5556L69.5864 9.69523V13.6047H68.8879V13.6047Z" fill="black" stroke="black" stroke-width="0.117895" stroke-miterlimit="10"/>
<path d="M62.1051 22.7687C59.9642 22.7687 58.2152 24.6397 58.2152 27.2212C58.2152 29.7817 59.9642 31.6723 62.1051 31.6723C64.2505 31.6723 65.9995 29.7817 65.9995 27.2212C65.9995 24.6397 64.2505 22.7687 62.1051 22.7687ZM62.1051 29.9191C60.9304 29.9191 59.9197 28.8057 59.9197 27.2212C59.9197 25.6158 60.9304 24.522 62.1051 24.522C63.2798 24.522 64.295 25.6158 64.295 27.2212C64.295 28.8057 63.2798 29.9191 62.1051 29.9191V29.9191ZM53.6179 22.7687C51.4724 22.7687 49.728 24.6397 49.728 27.2212C49.728 29.7817 51.4724 31.6723 53.6179 31.6723C55.7622 31.6723 57.5077 29.7817 57.5077 27.2212C57.5077 24.6397 55.7622 22.7687 53.6179 22.7687ZM53.6179 29.9191C52.442 29.9191 51.428 28.8057 51.428 27.2212C51.428 25.6158 52.442 24.522 53.6179 24.522C54.7926 24.522 55.8032 25.6158 55.8032 27.2212C55.8032 28.8057 54.7926 29.9191 53.6179 29.9191ZM43.5184 24.1334V26.0253H47.4527C47.3376 27.0825 47.03 27.8597 46.5583 28.4014C45.984 29.0556 45.0896 29.7817 43.5184 29.7817C41.0973 29.7817 39.2013 27.5378 39.2013 24.7575C39.2013 21.9772 41.0973 19.7333 43.5184 19.7333C44.8276 19.7333 45.7801 20.3207 46.4831 21.0822L47.6441 19.749C46.6608 18.6708 45.3528 17.8426 43.5184 17.8426C40.1983 17.8426 37.408 20.9448 37.408 24.7575C37.408 28.5701 40.1983 31.6723 43.5184 31.6723C45.3129 31.6723 46.6608 30.9972 47.7204 29.7307C48.8063 28.4838 49.1447 26.7305 49.1447 25.3149C49.1447 24.8752 49.1128 24.4709 49.0558 24.1334H43.5184ZM84.8163 25.6001C84.4961 24.6044 83.5082 22.7687 81.4961 22.7687C79.5022 22.7687 77.8421 24.573 77.8421 27.2212C77.8421 29.715 79.4851 31.6723 81.6875 31.6723C83.4684 31.6723 84.4961 30.4254 84.9188 29.6993L83.5971 28.6879C83.1562 29.4285 82.5557 29.9191 81.6875 29.9191C80.825 29.9191 80.2063 29.4651 79.8098 28.5701L84.9951 26.1064L84.8163 25.6001V25.6001ZM79.5295 27.0825C79.4851 25.3659 80.6906 24.4866 81.5542 24.4866C82.231 24.4866 82.8053 24.8752 82.9967 25.4313L79.5295 27.0825V27.0825ZM75.315 31.4015H77.0195V18.3176H75.315V31.4015ZM72.5235 23.7605H72.4666C72.0837 23.2397 71.3534 22.7687 70.4282 22.7687C68.4867 22.7687 66.7116 24.7261 66.7116 27.2356C66.7116 29.7307 68.4867 31.6723 70.4282 31.6723C71.3534 31.6723 72.0837 31.1974 72.4666 30.661H72.5235V31.2995C72.5235 33.0017 71.7317 33.9162 70.4544 33.9162C69.413 33.9162 68.767 33.0527 68.5004 32.3265L67.0181 33.037C67.4453 34.2172 68.5767 35.6695 70.4544 35.6695C72.4529 35.6695 74.1392 34.3192 74.1392 31.0339V23.0396H72.5235V23.7605V23.7605ZM70.5741 29.9191C69.3994 29.9191 68.4161 28.79 68.4161 27.2356C68.4161 25.6668 69.3994 24.522 70.5741 24.522C71.7317 24.522 72.6443 25.6668 72.6443 27.2356C72.6443 28.79 71.7317 29.9191 70.5741 29.9191V29.9191ZM92.7964 18.3176H88.7197V31.4015H90.4197V26.444H92.7964C94.6844 26.444 96.5359 24.8752 96.5359 22.3801C96.5359 19.8863 94.6798 18.3176 92.7964 18.3176V18.3176ZM92.8409 24.624H90.4197V20.1375H92.8409C94.1101 20.1375 94.8348 21.3478 94.8348 22.3801C94.8348 23.3928 94.1101 24.624 92.8409 24.624ZM103.349 22.7439C102.121 22.7439 100.844 23.3667 100.319 24.747L101.827 25.4732C102.152 24.747 102.749 24.5115 103.38 24.5115C104.262 24.5115 105.156 25.1199 105.17 26.1941V26.3315C104.862 26.1274 104.204 25.8251 103.394 25.8251C101.769 25.8251 100.114 26.8522 100.114 28.769C100.114 30.5223 101.444 31.6514 102.94 31.6514C104.084 31.6514 104.715 31.0587 105.112 30.3692H105.17V31.3806H106.812V26.3616C106.812 24.0418 105.303 22.7439 103.349 22.7439ZM103.144 29.9139C102.588 29.9139 101.813 29.5972 101.813 28.8057C101.813 27.793 102.78 27.4044 103.616 27.4044C104.365 27.4044 104.715 27.5941 105.17 27.844C105.037 29.0556 104.129 29.9139 103.144 29.9139V29.9139ZM112.794 23.0304L110.84 28.7023H110.781L108.761 23.0304H106.928L109.963 30.9567L108.232 35.3673H110.008L114.685 23.0304H112.794V23.0304ZM97.4702 31.4015H99.1747V18.3176H97.4702V31.4015Z" fill="black"/>
<defs>
<linearGradient id="paint0_linear_701_5181" x1="19.8705" y1="32.7521" x2="2.47082" y2="17.6001" gradientUnits="userSpaceOnUse">
<stop stop-color="white"/>
<stop offset="0.0066" stop-color="#00A1FF"/>
<stop offset="0.2601" stop-color="#00BEFF"/>
<stop offset="0.5122" stop-color="#00D2FF"/>
<stop offset="0.7604" stop-color="#00DFFF"/>
<stop offset="1" stop-color="#00E3FF"/>
</linearGradient>
<linearGradient id="paint1_linear_701_5181" x1="30.8402" y1="20.9328" x2="8.78476" y2="20.9328" gradientUnits="userSpaceOnUse">
<stop/>
<stop offset="0.4087" stop-color="#FFBD00"/>
<stop offset="0.7754" stop-color="#FFA500"/>
<stop offset="1" stop-color="#FF9C00"/>
</linearGradient>
<linearGradient id="paint2_linear_701_5181" x1="22.63" y1="18.531" x2="-0.965347" y2="-2.01637" gradientUnits="userSpaceOnUse">
<stop/>
<stop offset="1" stop-color="#C31162"/>
</linearGradient>
<linearGradient id="paint3_linear_701_5181" x1="6.6517" y1="41.6842" x2="17.1881" y2="32.509" gradientUnits="userSpaceOnUse">
<stop stop-color="white"/>
<stop offset="0.0685" stop-color="#2DA771"/>
<stop offset="0.4762" stop-color="#15CF74"/>
<stop offset="0.8009" stop-color="#06E775"/>
<stop offset="1" stop-color="#00F076"/>
</linearGradient>
</defs>
</svg>
